<svg width="22" height="24" viewBox="0 0 22 24" fill="none" xmlns="http://www.w3.org/2000/svg">
<g id="Group 28512">
<path id="Vector" d="M15.5938 2V6.53125M6.53125 2V6.53125M2 11.0625H20.125M2 6.53125C2 5.93037 2.2387 5.3541 2.66359 4.92921C3.08847 4.50432 3.66474 4.26563 4.26562 4.26563H17.8594C18.4603 4.26563 19.0365 4.50432 19.4614 4.92921C19.8863 5.3541 20.125 5.93037 20.125 6.53125V20.125C20.125 20.7259 19.8863 21.3022 19.4614 21.727C19.0365 22.1519 18.4603 22.3906 17.8594 22.3906H4.26562C3.66474 22.3906 3.08847 22.1519 2.66359 21.727C2.2387 21.3022 2 20.7259 2 20.125V6.53125Z" stroke="#687182" stroke-width="2.26563" stroke-linecap="round" stroke-linejoin="round"/>
<path id="Vector_2" d="M6.53125 15.5938H8.79688V17.8594H6.53125V15.5938Z" stroke="#687182" stroke-width="2.26563" stroke-linecap="round" stroke-linejoin="round"/>
</g>
</svg>
