<svg width="71" height="41" viewBox="0 0 71 41" fill="none" xmlns="http://www.w3.org/2000/svg">
<path fill-rule="evenodd" clip-rule="evenodd" d="M50.2984 19.7304C50.9944 14.3117 52.8536 9.54802 55.8229 5.41024C55.9724 5.20381 55.9407 4.92064 55.7501 4.75126L50.5326 0.123881C50.3288 -0.0560807 50.0178 -0.0375528 49.8352 0.163581C42.9716 7.80266 38.1669 15.5291 38.1669 26.1732L38.1669 40.3584C38.1669 40.6495 38.4051 40.8877 38.6962 40.8877L59.8032 40.8877C60.0943 40.8877 60.3325 40.6495 60.3325 40.3584L60.3325 20.2583C60.3325 19.9672 60.0943 19.729 59.8032 19.729L50.2984 19.729L50.2984 19.7304Z" fill="#C6B682"/>
<path fill-rule="evenodd" clip-rule="evenodd" d="M22.1315 19.7304C22.8275 14.3117 24.6867 9.54802 27.6574 5.41024C27.8056 5.20381 27.7738 4.92064 27.5833 4.75126L22.3657 0.123881C22.1633 -0.0560807 21.851 -0.0375528 21.6697 0.163581C14.8047 7.80266 10 15.5291 10 26.1732L10 40.3584C10 40.6495 10.2382 40.8877 10.5293 40.8877L31.6364 40.8877C31.9288 40.8877 32.167 40.6495 32.167 40.3584L32.167 20.2583C32.167 19.9672 31.9288 19.729 31.6364 19.729L22.1315 19.729L22.1315 19.7304Z" fill="#C6B682"/>
</svg>
